Description

Sinopse e detalhes

Em 8 de dezembro de 1941 os Estados Unidos declararam guerra ao Japão. Durante vários anos o exército norte-americano esteve envolvido em uma difícil batalha no Pacífico, onde lutava pela posse das diversas ilhas que cercam o Japão. Durante a batalha, o exército japonês tentava de todas as formas descobrir o código usado pelos americanos para a transmissão de suas mensagens em segredo. Em 1942 vários soldados navajos foram recrutados e treinados para que sua língua nativa fosse usada como código durante a guerra. Um destes soldados é Ben Yahzee (Adam Beach), que tem como guarda-costas o sargento Joe Enders (Nicolas Cage). Enders tem como missão proteger o código de guerra, conhecido por Yahzee, a todo custo dos inimigos japoneses, mesmo que para tanto seja preciso matar o soldado que protege.


Format : Matroska
Format version : Version 2
File size : 884 MiB
Duration : 2h 14mn
Overall bit rate : 921 Kbps
Encoded date : UTC 2013-05-12 11:28:00
Writing application : mkvmerge v5.8.0 ('No Sleep / Pillow') built on Sep 2 2012 15:37:04
Writing library : libebml v1.2.3 + libmatroska v1.3.0

Video
ID : 1
Format : AVC
Format/Info : Advanced Video Codec
Format profile : High@L4.1
Format settings, CABAC : Yes
Format settings, ReFrames : 4 frames
Muxing mode : Header stripping
Codec ID : V_MPEG4/ISO/AVC
Duration : 2h 14mn
Bit rate : 726 Kbps
Width : 720 pixels
Height : 368 pixels
Display aspect ratio : 2.40:1
Frame rate mode : Constant
Frame rate : 23.976 fps
Color space : YUV
Chroma subsampling : 4:2:0
Bit depth : 8 bits
Scan type : Progressive
Bits/(Pixel*Frame) : 0.114
Stream size : 682 MiB (77%)
Title : Código de Guerra ( by fantasma )
Writing library : x264 core 130 r2273 b3065e6
Encoding settings : cabac=1 / ref=3 / deblock=1:0:0 / analyse=0x3:0x113 / me=hex / subme=7 / psy=1 / psy_rd=1.00:0.00 / mixed_ref=1 / me_range=16 / chroma_me=1 / trellis=1 / 8x8dct=1 / cqm=0 / deadzone=21,11 / fast_pskip=1 / chroma_qp_offset=-2 / threads=3 / lookahead_threads=1 / sliced_threads=0 / nr=0 / decimate=1 / interlaced=0 / bluray_compat=0 / constrained_intra=0 / bframes=3 / b_pyramid=2 / b_adapt=1 / b_bias=0 / direct=1 / weightb=1 / open_gop=0 / weightp=2 / keyint=240 / keyint_min=23 / scenecut=40 / intra_refresh=0 / rc_lookahead=40 / rc=2pass / mbtree=1 / bitrate=726 / ratetol=1.0 / qcomp=0.60 / qpmin=0 / qpmax=69 / qpstep=4 / cplxblur=20.0 / qblur=0.5 / vbv_maxrate=62500 / vbv_bufsize=78125 / nal_hrd=none / ip_ratio=1.40 / aq=1:1.00
Language : Portuguese
Default : Yes
Forced : No

Audio
ID : 2
Format : AC-3
Format/Info : Audio Coding 3
Format profile : Dolby Digital
Mode extension : CM (complete main)
Format settings, Endianness : Big
Muxing mode : Header stripping
Codec ID : A_AC3
Duration : 2h 14mn
Bit rate mode : Constant
Bit rate : 192 Kbps
Channel(s) : 2 channels
Channel positions : Front: L R
Sampling rate : 48.0 KHz
Bit depth : 16 bits
Compression mode : Lossy
Stream size : 184 MiB (21%)
Title : by fantasma
Language : Portuguese
Default : Yes
Forced : No

Text #1
ID : 3
Format : VobSub
Muxing mode : zlib
Codec ID : S_VOBSUB
Codec ID/Info : The same subtitle format used on DVDs
Title : by fantasma
Language : Spanish
Default : No
Forced : No

Text #2
ID : 4
Format : VobSub
Muxing mode : zlib
Codec ID : S_VOBSUB
Codec ID/Info : The same subtitle format used on DVDs
Title : by fantasma
Language : Portuguese
Default : No
Forced : No

Text #3
ID : 5
Format : VobSub
Muxing mode : zlib
Codec ID : S_VOBSUB
Codec ID/Info : The same subtitle format used on DVDs
Title : by fantasma
Language : Korean
Default : No
Forced : No

Text #4
ID : 6
Format : VobSub
Muxing mode : zlib
Codec ID : S_VOBSUB
Codec ID/Info : The same subtitle format used on DVDs
Title : by fantasma
Language : Chinese
Default : No
Forced : No

Text #5
ID : 7
Format : UTF-8
Codec ID : S_TEXT/UTF8
Codec ID/Info : UTF-8 Plain Text
Title : Credito
Language : Portuguese
Default : Yes
Forced : No